<svg xmlns="http://www.w3.org/2000/svg" width="533.84" height="505.37"><g data-name="Слой 2"><g data-name="Слой 1"><path d="M178.3 153.39c-22.19 22.89-43.3 24.35-73.36 38.61-13.64 6.44-57.61 27.22-82.77 66.78-23.48 36.85-29.54 88.43-12.23 132.57 23 58.77 78.83 82.29 97.82 90.3C237 536.13 410 453.73 489.63 339.62c16.59-23.75 43.53-63.45 44.21-119.45.08-6.61-.27-97.9-71.48-149.55-90-65.27-226.76-19.12-257.72 39.5-5.83 11.03-9.94 26.35-26.34 43.27z" fill="#c4c4c4"/><path fill="none" stroke="#262626" stroke-miterlimit="10" d="M26.34.5h428.47v329.65H26.34z"/><path fill="none" stroke="#262626" stroke-miterlimit="10" d="M60.22 36.5h360v258.35h-360z"/><circle cx="44.69" cy="17.09" r="5.29" fill="#262626"/><circle cx="66.57" cy="17.09" r="5.29" fill="#262626"/><circle cx="88.36" cy="17.09" r="5.29" fill="#262626"/><path fill="none" stroke="#262626" stroke-miterlimit="10" d="M407.51 339.32h74.12M80.34 46.03h22.23"/><path d="M219.82 145.2a13.21 13.21 0 01-7.15-6.12c-2.3-4.6-6.13-7.15-7.15-1.79s-1 16.59 5.11 23 10.46 6.64 12 6.64-2.81-21.73-2.81-21.73zm81.45-9.65s5.87-6.69 9.19-5.15 6.12 4.59 5.1 10.21-9.7 22-11.49 21.84-2.8-26.9-2.8-26.9zm-74.05 43.1v66.89l35.75 42.64h20.93l20.17-54.76-4.34-61.15-72.51 6.38z" fill="#fff" stroke="#000" stroke-miterlimit="10"/><path d="M214.71 113s5.62 59.24 6.9 62.81 31.14 29.87 33.7 31.41 7.15 5.36 11.49 5.36 11.2-.48 14.55-6.58 20.43-29.11 22-31.15 4.85-5.62 3.83-12-5.18-70.5-5.18-70.5L246.37 74zm32.17-2.26s-13.27-4.6-16.34 4.59m42.38-5.74s16.35-3.32 17.88 2.87" fill="#fff" stroke="#000" stroke-miterlimit="10"/><path d="M269.35 118.14s-.51 10.21 0 15.06 1 9.45 2.55 10.09 1.54 7.53-5.1 9.06-9.19 0-10.47-2.55m-12 10.2s22 21.19 39.57-3.57" fill="#fff" stroke="#000" stroke-miterlimit="10"/><ellipse cx="242.92" cy="128.35" rx="2.68" ry="5.11" fill="#262626"/><ellipse cx="283.33" cy="128.35" rx="2.68" ry="5.11" fill="#262626"/><path d="M219.82 143.29s-.26 3.35-3.07 3-7.91-20.25-9.44-23.06-11.49-13.54-4.85-25.79 14.29-24.26 17.36-27.58 3.83-8.42 13-7.4c0 0 7.4-10 10.08-10s14-3.32 21.61 1.54 38 13.53 45.16 19.91 11 4.34 8.68 16.09-7 47.48-11 47.74-9.38-18.13-6.06-38c0 0-14.56-3.45-20.62-10 0 0 9.38 18.13-35-7.4 0 0-28.09 29.87-28.09 32.93a225.57 225.57 0 002.24 28.02z" fill="#262626"/><path d="M224.41 236.1s23.24 30.64 31.92 37 15.83 15.32 23.74 2.3 25.79-47 25.79-47l5.11 43.4-5.05 233h-82.78z" fill="#fbc469" stroke="#262626" stroke-miterlimit="10"/><path d="M360.39 245.94s20.88 9.48 23.26 10.5 7.49 7.49 8.51 15.66 29.62 104.9 31.66 110.64 5.79 38.12 9.87 44.25 10.55 21.79 11.58 23.49-.69 8.85-5.79 14.3c-3.89 4.15-45 40.09-45 40.09H301.8l.2-107.16s25.19-130.38 31-135.83 27.39-15.94 27.39-15.94zm-185.96 0s-25.34 11.18-27 11.18-4.42 5.45-4.76 8.51-25.88 94-31 104.17-7.83 48.34-12.6 56.85S86.12 452.18 88.84 460c2.11 6.08 49 44.86 49 44.86h94.53l-1.57-100.34-33.71-156.25z" fill="#00654d" stroke="#262626" stroke-miterlimit="10"/><path d="M227.22 245.54v-20.08s-2.13-5.11-13.24 0-39.69 10.89-40 16.68 4.76 12.26 9.53 14.64 14 10.89 15 22.81 32.29 124.93 32.29 124.93zM302 397.71s29.27-119.48 32.34-124.59 8.51-13.28 13.61-17 19.41-11.24 9.54-15.32-35.91-16.06-44.94-16-8.43-1.32-8.43 3.66S302 397.71 302 397.71z" fill="#fff" stroke="#000" stroke-miterlimit="10"/><path fill="#00654d" stroke="#262626" stroke-miterlimit="10" d="M165.09 330.31l-4.54 118.06"/><path fill="#fff" stroke="#000" stroke-miterlimit="10" d="M172.24 479.42l13.28 8.17-11.29 17.28h-12.46l10.47-25.45z"/><path d="M161.77 504.87c2.38-3.4 15.58-27.84 15.58-27.84a12.57 12.57 0 00-3.42-8.85c-3.73-3.74-29.26-43.18-29.26-43.18" fill="#00654d" stroke="#262626" stroke-miterlimit="10"/><path d="M117.09 415.08s14-6.81 17-3.07 23.49 19.07 23.49 19.07" fill="none" stroke="#262626" stroke-miterlimit="10"/><path d="M130.71 399.42s20.43 4.08 23.49 13.95m19.45 91.5h12.39l12.08-28.18-9.19-4.45-15.28 32.63zm195.02-174.56l3.4 116.43m5.11-23.83s23.49-24.17 41.87-18.39M377.18 409s18.38-20.09 28.6-17.36" fill="#00654d" stroke="#262626" stroke-miterlimit="10"/><path fill="#fff" stroke="#000" stroke-miterlimit="10" d="M346.2 485.54l14.63-4.42 9.54 23.75h-14.98l-9.19-19.33z"/><path d="M389.09 425s-33.7 43.51-33.7 47.29 1 8.2 5.44 17.39 7.71 15.24 7.71 15.24m-9.91-.05l-16.17-33.02-7.83 4.5 13.49 28.52h10.51z" fill="#00654d" stroke="#262626" stroke-miterlimit="10"/><path d="M368.8 504.4c2.68.2 16.08 0 16.08 0l-.64-6.57-16.85-3.19" fill="#00654d"/></g></g></svg>